<svg width="32" height="32" viewBox="0 0 32 32" fill="none" xmlns="http://www.w3.org/2000/svg">
  <defs>
    <linearGradient id="bgGradient" x1="0%" y1="0%" x2="100%" y2="100%">
      <stop offset="0%" style="stop-color:#FF6B35;stop-opacity:1" />
      <stop offset="100%" style="stop-color:#E85D04;stop-opacity:1" />
    </linearGradient>
  </defs>
  
  <!-- Background -->
  <rect width="32" height="32" rx="8" fill="url(#bgGradient)"/>
  
  <!-- Fork icon -->
  <path d="M8 6 L8 12 M6 6 L6 9 L8 9 M10 6 L10 9 L8 9 M8 12 L8 20" stroke="#FFF" stroke-width="1.5" stroke-linecap="round" stroke-linejoin="round"/>
  
  <!-- Spoon icon -->
  <path d="M24 6 C24 6 22 8 22 10 C22 12 23 13 24 13 C25 13 26 12 26 10 C26 8 24 6 24 6 Z M24 13 L24 20" stroke="#FFF" stroke-width="1.5" stroke-linecap="round" stroke-linejoin="round"/>
  
  <!-- Plate -->
  <ellipse cx="16" cy="24" rx="10" ry="3" fill="#FFF3E0" stroke="#FFF" stroke-width="1"/>
  
  <!-- Food item (simplified burger) -->
  <ellipse cx="16" cy="18" rx="6" ry="2" fill="#D2691E"/>
  <ellipse cx="16" cy="16" rx="5" ry="1.5" fill="#228B22"/>
  <ellipse cx="16" cy="14" rx="6" ry="2" fill="#D2691E"/>
</svg>